<svg width="1728" height="254" viewBox="0 0 1728 254" fill="none" xmlns="http://www.w3.org/2000/svg">
<g filter="url(#filter0_d_3_17)">
<path d="M387.701 0.430075C386.866 0.688148 386.031 1.04007 386.031 1.2043C386.031 1.65006 375.34 3.26889 372.501 3.26889C371.165 3.26889 367.657 3.05773 364.483 2.7762C357.969 2.23659 350.452 2.11928 346.944 2.54159C344.94 2.7762 344.606 3.17504 345.441 4.27772C346.276 5.77924 341.432 9.32189 337.423 10.0023C336.254 10.1665 332.579 10.3776 328.904 10.4715C318.548 10.6826 303.682 12.3953 298.169 13.9672C294.829 14.9057 291.989 15.3749 287.646 15.7033C284.138 15.938 277.29 16.8295 272.279 17.6741C262.925 19.2929 259.417 19.4806 256.577 18.5656C254.406 17.8383 248.392 17.6741 243.047 18.1433C239.205 18.5187 238.871 18.6829 239.205 19.9968C239.873 22.9998 231.856 25.0175 216.989 25.5805C207.802 25.909 203.96 25.5571 203.96 24.3606C203.96 23.8444 203.125 23.211 202.29 22.9529C199.283 22.1787 188.426 21.5687 177.402 21.5687C164.54 21.5687 162.702 21.686 158.693 22.7652C155.186 23.774 150.676 23.9382 144.829 23.3283C142.992 23.1406 139.651 22.9763 137.313 22.9763C134.974 22.9529 131.132 22.8121 128.794 22.6244C126.455 22.4367 121.11 22.296 116.934 22.2725C108.081 22.2725 102.068 22.9529 102.068 23.9617C102.068 24.7829 109.919 27.1524 115.598 28.0674C124.785 29.569 125.453 31.657 116.6 31.657C107.413 31.657 100.731 33.2524 102.903 34.8947C103.571 35.3639 106.578 36.1381 109.751 36.6308C112.925 37.1235 115.431 37.7804 115.431 38.0619C115.431 38.7188 110.587 39.3992 106.077 39.3992C101.901 39.3992 92.7137 38.4842 85.8652 37.3581C81.1881 36.5839 79.8518 36.49 71.5 36.4431C58.9722 36.3727 54.2952 35.88 50.9544 34.3316C46.9455 32.4078 30.5759 30.5074 20.8877 30.8593C18.7163 30.9297 15.7096 30.9532 14.3733 30.8593C12.0348 30.742 12.0348 30.6482 14.3733 30.0382C18.7163 28.8417 17.714 27.9736 11.5337 27.5278C6.35551 27.1524 6.18847 27.1524 3.1818 27.692C-5.17006 29.2405 -9.68006 29.4516 -14.1901 28.4897C-17.6978 27.739 -23.8782 27.6686 -22.2078 28.4193C-18.533 30.0616 -12.0186 31.1409 -3.66672 31.5162C-0.660054 31.657 -0.325979 31.7978 -0.994128 32.5955C-2.16339 33.8154 -0.827091 34.4958 4.5181 35.2935C9.52921 36.0443 9.19514 36.6777 3.34884 38.3435C-1.16116 39.6338 -0.325979 40.1031 7.6918 40.7365C15.8766 41.37 17.38 41.9096 15.2085 43.6692C11.7007 46.7426 -0.827091 47.5872 -11.0164 45.4522C-16.1945 44.3495 -25.2145 43.3876 -30.2256 43.3876C-35.7378 43.3876 -51.4393 44.1149 -54.1119 44.4668C-58.2879 45.0534 -57.2856 46.4376 -52.1075 47.1883C-48.0986 47.7749 -47.9316 47.8453 -50.7712 47.986C-52.9427 48.1033 -54.613 47.986 -56.9516 47.5403C-58.789 47.1883 -61.4616 46.9068 -63.1319 46.9068C-64.6353 46.9068 -71.1497 47.3995 -77.4971 47.986C-87.3523 48.901 -89.6908 49.0418 -94.5349 48.901C-102.553 48.6899 -105.058 49.0652 -105.058 50.4729C-105.058 51.3879 -105.893 51.7398 -109.234 52.1856C-111.406 52.514 -115.08 52.7721 -117.419 52.7721C-124.435 52.7721 -127.107 53.3821 -125.938 54.649C-124.936 55.6579 -125.27 55.7517 -129.112 56.0098C-135.292 56.3852 -134.457 56.8778 -126.439 57.699C-120.927 58.2621 -117.92 58.4028 -110.905 58.4028C-101.718 58.4028 -97.2075 58.8017 -99.0449 59.4586C-99.7131 59.6932 -102.219 59.8105 -107.23 59.8105C-115.916 59.8105 -117.92 60.0216 -125.604 61.7343C-128.945 62.4616 -133.956 63.2358 -136.628 63.447C-139.468 63.6347 -142.14 64.0335 -142.642 64.3385C-143.644 64.8781 -136.795 67.975 -132.619 68.8665C-129.279 69.5938 -126.272 71.6584 -127.441 72.3388C-127.942 72.6673 -130.615 73.0192 -133.455 73.1834C-139.301 73.5353 -139.802 73.7699 -135.125 74.1688C-131.283 74.5207 -130.615 75.6938 -133.956 76.3272C-135.793 76.6791 -139.134 76.773 -153.332 76.8434C-168.866 76.9137 -171.205 76.8668 -178.555 76.3507C-183.065 76.0222 -189.245 75.3418 -192.085 74.8257C-197.263 73.9342 -212.463 72.4796 -216.806 72.4796C-219.479 72.4796 -219.145 73.7699 -216.305 74.0984C-214.969 74.2392 -212.463 74.8961 -210.459 75.553C-207.452 76.5149 -207.118 76.8668 -208.454 77.5707C-210.125 78.4153 -209.958 78.4857 -203.61 79.3537C-195.926 80.386 -195.425 80.8552 -200.938 81.7937C-202.942 82.1456 -205.615 82.6618 -206.617 82.9433C-208.287 83.3656 -210.626 83.4594 -224.49 83.6002C-238.855 83.7644 -241.026 83.7175 -246.038 83.2952C-253.554 82.6383 -262.24 82.6618 -270.425 83.3891C-278.443 84.0929 -278.944 84.7029 -272.931 85.8759C-260.737 88.2455 -259.735 88.5036 -259.902 89.3482C-259.902 89.8174 -260.57 90.4978 -261.238 90.8497C-262.24 91.3659 -261.739 91.6709 -259.066 92.187C-257.229 92.5389 -254.891 93.1959 -254.222 93.6182C-253.053 94.2516 -251.717 94.4393 -247.207 94.5566C-238.521 94.8147 -236.683 95.237 -235.514 97.2547C-234.512 98.85 -233.844 99.1081 -229.501 99.6242C-225.659 100.093 -223.488 100.187 -218.811 100.07C-215.47 99.9996 -211.962 100.023 -210.793 100.117C-207.118 100.422 -201.94 102.369 -201.94 103.402C-201.94 104.786 -197.096 105.701 -188.243 106.053C-179.39 106.381 -172.374 107.366 -170.871 108.516C-169.702 109.361 -170.036 109.455 -176.049 110.135C-190.581 111.73 -190.581 111.754 -191.416 112.95C-191.751 113.607 -193.755 114.616 -195.592 115.226L-199.1 116.305L-195.091 117.337C-191.918 118.112 -190.08 118.346 -186.906 118.346C-182.898 118.346 -182.731 118.276 -183.232 117.126C-183.733 115.648 -180.559 114.639 -173.543 114.123C-169.033 113.795 -168.198 113.818 -163.02 114.241C-156.172 114.804 -152.163 114.663 -150.826 113.795C-150.325 113.466 -149.657 112.95 -149.156 112.645C-147.987 111.777 -142.308 111.988 -138.466 113.068C-136.628 113.56 -133.622 114.1 -131.951 114.217C-130.281 114.358 -127.274 114.827 -125.27 115.296C-122.597 115.953 -120.76 116.117 -116.751 116.117C-109.902 116.117 -108.733 116.681 -113.41 117.572C-116.918 118.252 -117.085 118.393 -115.248 119.379C-114.245 119.965 -111.74 120.763 -109.902 121.115C-107.063 121.654 -106.729 121.983 -107.564 122.921C-108.566 123.907 -108.232 124.094 -104.891 124.54C-102.72 124.798 -100.548 125.033 -99.8801 125.033C-97.7086 125.033 -83.3434 128.2 -83.3434 128.646C-83.3434 129.162 -80.6708 129.889 -75.6597 130.734C-71.3168 131.438 -70.3145 132.54 -73.6553 132.54C-74.8245 132.54 -78.6664 132.095 -82.0071 131.555C-87.1853 130.71 -88.6886 130.593 -91.1942 130.804C-99.546 131.485 -101.718 133.573 -95.8712 135.098C-94.7019 135.426 -92.3634 136.482 -90.8601 137.444C-87.5194 139.461 -88.0205 139.579 -100.381 139.579C-107.397 139.579 -109.067 139.461 -114.913 138.64C-125.938 137.068 -130.949 137.514 -127.441 139.766C-126.439 140.494 -124.936 141.268 -124.268 141.503C-123.098 141.948 -116.584 142.347 -109.234 142.441C-104.39 142.511 -104.223 142.535 -104.724 143.708C-105.225 144.576 -104.223 145.233 -101.049 146.242C-95.5371 147.978 -95.5371 148.189 -101.718 149.362C-104.557 149.878 -107.898 150.77 -109.234 151.333C-110.738 151.896 -113.577 152.623 -115.749 152.952C-125.771 154.453 -129.446 156.94 -123.933 158.489C-122.096 158.981 -119.59 160.084 -118.421 160.928C-115.749 162.829 -111.239 164.237 -106.395 164.659C-104.223 164.847 -98.0427 165.058 -92.5305 165.128L-82.5082 165.269L-83.0094 166.02C-83.6775 166.911 -83.0094 166.958 -66.9738 167.521C-59.7912 167.779 -52.9427 168.037 -51.4393 168.084C-49.769 168.155 -45.7601 167.873 -41.5841 167.38C-30.2256 166.043 -19.2012 166.418 -17.1967 168.225C-15.8604 169.421 -13.0208 169.586 -4.83598 168.929C-1.3282 168.671 1.8455 168.436 2.51365 168.436C3.01476 168.436 6.02143 168.765 9.19514 169.14C15.8766 169.961 22.3911 172.378 21.5559 173.644C21.2218 174.278 20.2196 174.442 16.5448 174.489C11.0325 174.583 -0.158942 173.246 -5.00302 171.932C-6.67339 171.439 -8.84487 170.97 -9.84709 170.9C-10.8493 170.806 -16.5286 171.345 -22.3749 172.096C-37.9093 173.996 -37.4082 174.536 -18.0319 177.07C-7.34154 178.478 -6.67339 178.524 2.01254 178.524C9.69625 178.524 11.3666 178.431 14.3733 177.914C17.8811 177.304 18.0481 177.304 23.3933 177.68C26.4 177.914 31.4111 178.055 34.4177 178.032C40.097 177.961 45.2752 178.36 45.2752 178.9C45.2752 179.064 47.4466 179.416 50.2863 179.697C53.1259 179.979 55.9655 180.542 56.9678 181.058C59.3063 182.302 59.3063 182.325 53.2929 181.809C50.2863 181.551 46.1103 181.34 44.1059 181.34C40.097 181.34 36.5892 180.636 37.0903 179.979C37.5914 179.205 36.9233 179.041 32.0792 178.759C18.3822 177.985 13.204 179.885 24.2285 181.574C26.4 181.903 29.4066 182.489 31.077 182.912C33.7496 183.545 33.9166 183.709 31.9122 184.038C28.0703 184.695 15.5425 184.39 6.18847 183.451C-4.33487 182.396 -10.3482 182.396 -17.6978 183.522C-20.7045 183.991 -23.2101 184.484 -23.2101 184.601C-23.2101 185.07 -16.1945 186.009 -11.5175 186.149C-8.17672 186.243 -5.00302 186.642 -1.82931 187.275L2.84773 188.261H14.0392C27.0681 188.261 29.4066 188.495 28.9055 189.786C28.4044 190.818 31.077 191.17 36.4222 190.771C38.9277 190.56 39.4289 190.208 39.4289 188.449C39.4289 187.322 40.4311 186.102 41.4333 185.75L43.4377 185.141L52.6248 185.539C57.8029 185.75 63.8163 186.196 66.1548 186.501L70.4978 187.088L73.5044 186.548C77.0122 185.891 78.6826 186.079 78.6826 187.135C78.6826 187.815 78.1815 187.909 74.5066 187.909C70.9989 187.909 69.6626 188.12 66.99 188.965C63.4822 190.114 61.3107 190.232 53.627 189.669C50.9544 189.481 47.6137 189.387 46.2774 189.457C42.9366 189.645 42.7696 190.349 45.9433 190.701C47.1126 190.842 48.6159 191.358 49.284 191.85C49.7852 192.413 52.7918 193.141 57.97 193.962C64.9855 195.088 66.3218 195.205 71.667 195.135C76.177 195.088 78.3485 194.9 80.1859 194.455C82.3574 193.892 82.1904 193.798 77.8474 192.977C73.5044 192.179 73.3374 192.062 75.1748 191.123C77.8474 189.809 81.0211 189.246 84.8629 189.41C89.0389 189.598 99.2281 191.757 98.393 192.296C98.0589 192.531 95.0522 192.93 91.5444 193.188C88.2037 193.446 85.3641 193.774 85.3641 193.938C85.3641 194.079 90.8763 194.76 97.5578 195.417C110.42 196.707 109.25 196.66 127.29 196.238C135.809 196.027 138.315 196.496 135.976 197.927C134.473 198.818 134.64 199.17 136.644 199.78C140.319 200.836 138.649 201.282 130.965 201.282C115.431 201.282 105.91 202.22 101.901 204.097C99.5622 205.223 102.402 207.898 107.246 209.001C110.42 209.728 121.11 210.549 130.631 210.784C135.642 210.901 137.48 210.831 141.99 210.291C150.341 209.329 155.687 207.593 156.689 205.575C157.19 204.637 158.192 203.792 158.86 203.745C161.032 203.558 180.909 205.341 183.582 205.974C188.593 207.1 192.936 207.616 197.112 207.616C199.45 207.616 205.631 207.898 210.642 208.226C216.989 208.649 223.838 208.883 232.691 208.954C244.885 209.094 245.887 209.141 249.896 209.869C252.902 210.408 256.577 210.737 263.092 210.995C268.103 211.206 274.283 211.628 276.956 211.933C284.973 212.872 295.163 213.505 305.853 213.716C316.376 213.927 323.392 214.397 327.234 215.171C331.076 215.922 339.26 215.546 339.26 214.631C339.26 214.068 342.935 213.927 350.285 214.209C361.81 214.678 375.842 213.974 379.349 212.778C382.022 211.886 388.536 211.136 393.715 211.136C399.06 211.136 422.278 213.529 443.826 216.297C458.859 218.221 463.202 218.667 470.05 218.901C482.578 219.324 486.921 219.065 501.453 217.118C517.823 214.913 525.006 214.702 515.485 216.672C510.808 217.658 510.139 218.737 513.647 219.934C516.654 220.919 519.493 220.966 527.678 220.168C534.861 219.488 543.046 219.417 546.721 219.98C548.224 220.215 550.896 220.895 552.734 221.505C556.743 222.819 560.083 223.101 571.442 223.101C576.119 223.101 581.464 223.195 583.135 223.335C587.645 223.687 611.03 222.984 618.714 222.256C624.226 221.74 626.397 221.67 633.246 221.81C638.257 221.904 641.598 221.881 642.433 221.717C644.103 221.318 648.446 221.412 653.958 221.998C656.798 222.303 660.473 222.608 661.976 222.702C666.987 222.96 681.687 222.256 687.366 221.482C693.713 220.614 696.887 220.59 704.571 221.247C708.579 221.599 711.753 221.717 715.261 221.599C718.435 221.529 722.277 221.599 725.116 221.81C733.635 222.42 736.475 222.28 738.646 221.13C741.987 219.253 751.174 218.714 749.17 220.52C748.167 221.341 748.501 221.459 752.844 221.764C755.517 221.951 761.363 222.186 765.706 222.28C775.728 222.491 782.41 223.242 787.922 224.767C792.432 226.057 796.274 226.456 806.797 226.855C813.813 227.113 826.341 228.098 829.18 228.614C829.848 228.732 830.851 229.154 831.519 229.506C832.688 230.256 836.363 230.608 843.211 230.608C850.227 230.608 852.064 231.007 852.064 232.532C852.064 234.198 855.572 235.465 860.917 235.746C862.922 235.864 868.267 235.911 872.61 235.84C881.63 235.7 884.804 235.958 886.307 236.943C887.977 237.975 891.318 238.257 896.496 237.764C900.505 237.412 900.839 237.271 899.67 236.38C897.833 234.831 898.501 234.198 903.178 233.072C906.853 232.157 907.187 231.922 905.683 231.289C903.512 230.397 904.013 230.28 912.031 229.553C915.873 229.224 919.714 228.614 921.886 227.981C923.723 227.418 926.396 226.808 927.899 226.643C931.741 226.198 931.24 225.165 926.897 224.391C922.888 223.664 922.387 222.538 925.561 221.693C928.066 221.013 934.915 221.177 944.436 222.162C948.612 222.585 953.289 222.866 956.296 222.866C963.144 222.866 971.83 222.092 975.338 221.2C982.019 219.488 988.033 218.362 998.389 216.977C1008.75 215.546 1009.25 215.429 1008.24 214.608C1007.41 213.927 1008.08 213.552 1011.42 212.801L1015.76 211.839L1027.95 211.792C1034.47 211.769 1044.32 211.792 1049.67 211.816C1063.03 211.91 1068.38 211.558 1071.72 210.338C1074.06 209.47 1074.06 209.235 1071.72 207.804C1070.38 206.936 1069.38 205.786 1069.38 205.223C1069.55 204.66 1068.88 203.956 1067.71 203.651C1066.54 203.37 1066.04 203.065 1066.54 202.995C1068.04 202.783 1075.89 203.628 1077.4 204.168C1079.07 204.754 1088.25 206.021 1093.77 206.42C1095.77 206.561 1099.45 206.678 1102.12 206.678C1106.8 206.678 1125.34 207.147 1144.38 207.757C1152.06 207.992 1162.59 208.062 1180.29 208.015C1202.51 207.945 1205.85 207.992 1209.52 208.367C1214.7 208.883 1231.24 209.235 1231.24 208.813C1231.24 208.649 1228.9 208.109 1226.06 207.616C1219.04 206.42 1220.38 205.739 1229.57 205.739C1233.24 205.739 1239.26 205.974 1243.1 206.232C1247.44 206.561 1254.96 206.819 1263.98 206.936C1275.67 207.077 1280.51 207.288 1293.54 208.179C1303.06 208.813 1310.41 209.493 1312.08 209.845C1316.09 210.713 1321.44 210.549 1325.28 209.423C1327.12 208.883 1329.96 208.438 1332.8 208.297C1335.3 208.179 1339.65 207.921 1342.32 207.734C1345.16 207.546 1353.34 207.358 1360.69 207.311C1370.21 207.241 1376.06 207.077 1380.9 206.701C1386.42 206.303 1388.59 206.232 1392.26 206.443C1394.77 206.561 1401.95 206.678 1408.13 206.678C1418.82 206.678 1419.66 206.725 1425 207.499L1430.68 208.32L1451.56 208.297C1463.25 208.273 1474.95 208.203 1477.62 208.109C1480.46 208.039 1486.64 208.062 1491.65 208.179C1500 208.391 1500.84 208.367 1503.68 207.874C1505.68 207.523 1506.85 206.936 1506.85 206.232C1507.02 205.646 1508.52 204.566 1510.36 203.863C1512.2 203.159 1514.2 202.314 1514.7 201.986C1515.87 201.094 1509.52 200.39 1497.5 200.085C1492.15 199.945 1484.97 199.593 1481.79 199.288C1478.62 198.959 1473.44 198.607 1470.44 198.443C1466.76 198.255 1463.92 197.88 1461.58 197.247C1457.57 196.12 1454.73 195.956 1449.06 196.472C1443.88 196.942 1436.03 196.848 1435.36 196.308C1434.86 196.003 1437.03 195.815 1444.04 195.534C1451.06 195.252 1454.57 194.947 1457.74 194.337C1460.25 193.892 1463.59 193.54 1465.42 193.54C1468.43 193.54 1478.95 194.267 1489.81 195.229L1495.32 195.698L1504.34 195.229C1513.87 194.713 1517.71 194.76 1526.39 195.463C1531.24 195.862 1532.07 195.886 1536.42 195.557C1538.92 195.37 1543.26 194.83 1545.77 194.384C1551.45 193.375 1556.96 192.93 1567.32 192.718C1573.66 192.578 1576.5 192.367 1581.35 191.616C1587.36 190.654 1588.2 189.974 1584.52 188.777C1583.52 188.449 1584.19 188.378 1588.7 188.378C1592.87 188.378 1595.71 188.167 1600.22 187.487C1609.08 186.196 1617.26 185.563 1625.11 185.563C1632.29 185.563 1639.48 184.929 1655.51 182.912C1671.72 180.847 1669.88 180.237 1644.99 179.486C1635.97 179.205 1626.62 178.994 1624.11 178.994C1621.6 178.994 1615.93 178.712 1611.25 178.384C1604.23 177.891 1601.39 177.797 1594.21 177.914C1589.53 177.985 1583.52 177.938 1581.18 177.821C1578.17 177.656 1574.67 177.656 1570.32 177.821C1563.48 178.079 1545.77 177.586 1539.42 176.976C1535.41 176.577 1530.9 176.554 1521.22 176.929C1515.03 177.164 1512.7 177.14 1507.35 176.812C1503.84 176.601 1497.66 176.366 1493.49 176.272C1484.3 176.084 1473.61 174.935 1467.43 173.457C1463.25 172.471 1457.41 171.955 1453.57 172.284C1449.22 172.683 1447.22 171.697 1446.05 168.6C1445.05 165.996 1445.38 165.269 1447.38 164.565C1448.89 164.072 1450.06 163.251 1450.06 162.688C1450.06 162.148 1450.89 161.374 1451.89 160.975C1453.06 160.506 1453.23 159.873 1452.23 159.239C1450.22 157.855 1451.23 157.222 1456.07 156.799C1459.24 156.494 1460.58 156.471 1462.59 156.705C1466.26 157.128 1465.59 157.902 1460.91 159.099C1457.41 160.014 1457.07 160.201 1459.08 160.436C1460.91 160.647 1463.09 160.553 1469.43 159.99C1473.78 159.615 1478.29 159.286 1479.46 159.286C1480.63 159.286 1483.46 158.958 1485.8 158.535C1489.81 157.785 1490.15 157.785 1495.99 158.09C1504.01 158.489 1509.36 158.019 1511.86 156.705C1512.86 156.189 1515.87 155.415 1518.54 154.969C1521.22 154.547 1524.39 153.773 1525.56 153.28C1529.23 151.685 1538.25 152.013 1538.25 153.726C1538.25 154.101 1539.26 154.57 1540.76 154.758C1542.93 155.063 1543.77 155.063 1548.28 154.735C1551.11 154.524 1553.95 154.054 1554.96 153.656C1555.96 153.28 1557.46 152.952 1558.13 152.952C1558.97 152.952 1560.8 153.468 1562.47 154.101C1566.98 155.884 1580.18 157.151 1583.19 156.095C1583.85 155.861 1582.52 155.532 1579.34 155.18C1573.83 154.547 1574.5 154.172 1582.52 153.327C1586.69 152.905 1587.03 152.905 1591.2 153.28C1594.04 153.538 1597.22 153.632 1599.72 153.562C1603.56 153.421 1603.73 153.327 1603.73 151.591C1603.73 150.371 1604.9 149.339 1607.07 148.424C1608.91 147.696 1610.41 146.875 1610.41 146.617C1610.41 145.773 1605.9 144.881 1599.22 144.341C1589.2 143.544 1586.53 143.004 1587.7 142.113C1588.2 141.69 1589.53 140.447 1590.54 139.344C1591.54 138.241 1593.04 137.233 1593.88 137.092C1594.71 136.951 1595.21 135.895 1595.05 134.746C1594.88 133.197 1595.71 132.235 1598.39 130.992C1603.06 128.857 1603.06 128.153 1597.89 126.44C1594.54 125.314 1593.71 124.657 1593.71 122.945C1593.71 120.458 1592.87 120.106 1581.52 117.713C1573.5 116 1572.16 115.836 1564.48 115.531C1559.97 115.343 1552.45 115.132 1547.94 115.038C1540.26 114.898 1518.04 113.419 1511.53 112.645C1509.86 112.458 1508.02 111.918 1507.52 111.449C1506.18 110.416 1504.68 110.018 1497.5 108.68C1494.32 108.094 1491.82 107.507 1491.82 107.32C1491.82 107.155 1489.65 106.405 1486.81 105.677C1484.13 104.95 1481.79 104.199 1481.79 104.035C1481.79 103.495 1488.48 102.557 1493.49 102.393C1500.5 102.182 1506.68 101.407 1509.69 100.375C1512.36 99.4365 1513.2 99.3896 1523.55 99.46C1528.56 99.5069 1532.24 99.9058 1551.11 102.487C1566.48 104.621 1574.33 105.513 1578.01 105.63C1581.18 105.724 1584.86 106.076 1587.7 106.592C1590.2 107.061 1593.04 107.437 1594.04 107.437C1598.05 107.437 1614.09 109.173 1617.93 110.018C1621.77 110.886 1628.79 111.425 1636.14 111.425C1638.14 111.425 1643.32 111.613 1647.66 111.824L1655.68 112.223L1664.37 110.909C1671.05 109.9 1674.56 109.548 1679.73 109.408C1685.75 109.267 1686.58 109.314 1689.76 109.924C1699.94 111.918 1705.46 112.199 1719.82 111.425C1734.02 110.674 1738.03 110.628 1745.71 111.05C1755.23 111.589 1756.9 111.543 1764.09 110.534C1767.59 110.064 1772.61 109.478 1774.94 109.22C1777.45 108.985 1780.79 108.352 1782.46 107.812C1783.96 107.296 1788.64 106.334 1792.65 105.701C1798.83 104.715 1800 104.387 1800 103.542C1800 102.252 1796.33 101.712 1776.28 99.9996C1765.92 99.1081 1760.41 98.4746 1759.41 98.0758C1755.07 96.3631 1752.39 95.0728 1752.39 94.7443C1752.39 94.5566 1749.22 93.8528 1745.38 93.1724C1741.37 92.5155 1736.69 91.6474 1734.86 91.2251C1729.68 90.052 1724.33 89.6297 1710.3 89.3013C1693.93 88.9024 1686.75 89.1605 1685.91 90.1224C1685.41 90.6151 1684.24 90.8028 1680.9 90.9201C1672.05 91.2016 1671.38 91.2486 1668.54 91.9289C1664.87 92.8674 1658.52 93.407 1649.67 93.5478C1640.81 93.6885 1638.81 93.3132 1642.82 92.2105C1646.99 91.0843 1646.33 90.2163 1640.31 89.5124C1634.13 88.7617 1626.62 88.7148 1619.6 89.3717C1616.93 89.6297 1612.25 89.8409 1609.58 89.8409C1606.74 89.8409 1602.06 89.9347 1598.89 90.0755C1594.21 90.2632 1592.21 90.2163 1587.53 89.8174C1583.02 89.4186 1580.35 89.3482 1574.67 89.4655C1568.82 89.6063 1563.64 89.4421 1547.61 88.7148C1536.58 88.1986 1524.39 87.7059 1520.21 87.6121C1510.86 87.4009 1508.35 87.2132 1495.99 85.8525C1490.48 85.266 1484.63 84.656 1482.96 84.5152C1481.29 84.3979 1478.29 83.8817 1476.28 83.3891C1470.94 82.0518 1467.93 81.8875 1461.75 82.521C1453.73 83.3656 1452.73 83.0606 1454.07 80.2687C1454.73 78.4153 1455.9 77.5941 1458.41 77.0076C1462.25 76.0691 1462.59 75.4122 1459.24 74.5911C1457.91 74.2626 1456.91 73.6996 1456.74 73.3242C1456.74 72.5969 1454.57 71.4707 1450.73 70.1804C1447.38 69.1011 1447.89 67.8577 1451.73 67.0835C1453.57 66.7316 1455.74 66.1685 1456.74 65.8166C1458.58 65.1362 1456.4 64.7139 1446.05 63.7285C1443.54 63.4939 1441.71 63.0951 1441.71 62.7666C1441.71 61.7343 1436.69 59.9043 1430.85 58.8955C1427.67 58.3324 1425 57.6286 1425 57.3471C1425 57.0655 1423.16 56.0802 1420.83 55.1652C1417.82 53.9452 1416.65 53.0067 1416.65 51.7164C1416.65 50.1445 1416.15 49.8629 1412.47 49.3702C1409.13 48.8775 1406.79 48.7837 1399.28 48.7837C1390.93 48.7837 1389.92 48.8541 1384.91 49.6518C1381.91 50.121 1378.4 50.8483 1377.23 51.2706C1375.89 51.6929 1374.22 52.0917 1373.39 52.1621C1372.55 52.256 1371.38 52.6079 1370.71 52.9598C1370.21 53.3352 1367.21 54.1329 1364.03 54.7663C1360.86 55.3998 1358.19 56.0332 1358.19 56.1975C1358.19 56.7136 1354.18 56.9248 1341.98 57.089L1329.96 57.2532L1320.77 56.0802C1303.73 53.8983 1291.87 53.4056 1287.2 54.649C1284.19 55.4467 1282.69 55.5171 1279.01 54.9775C1277.17 54.7429 1276.34 54.1798 1276.34 53.3586C1276.34 52.6548 1275.67 52.0214 1274.67 51.951C1271.49 51.6694 1260.8 52.1387 1255.29 52.819L1249.78 53.4994L1244.6 52.9833C1239.92 52.4906 1238.92 52.4671 1231.57 52.7252C1227.23 52.8894 1220.55 53.2413 1216.71 53.4994C1208.02 54.0859 1205.51 53.9217 1207.02 52.866C1208.19 51.8806 1204.51 50.6606 1197.5 49.8395C1191.82 49.1591 1188.98 49.1122 1185.47 49.6283C1181.8 50.121 1182.13 51.1298 1186.14 51.8337C1191.15 52.7252 1190.48 53.781 1184.3 54.6256C1181.46 55.0244 1178.29 55.3529 1177.12 55.3529C1174.45 55.3529 1170.6 54.7429 1167.1 53.7575C1163.25 52.7017 1158.74 52.7721 1154.4 53.9452C1151.06 54.8602 1150.06 56.1975 1152.4 56.6432C1153.07 56.784 1156.57 57.1359 1160.25 57.4409C1168.27 58.0978 1169.27 58.2855 1173.78 60.4674C1177.79 62.3912 1177.45 62.5085 1166.09 62.7197C1154.23 62.9308 1153.4 62.9308 1146.55 62.3208C1138.7 61.5935 1134.36 61.4762 1114.98 61.3589C1100.62 61.2886 1099.11 61.2182 1086.58 60.2328C1075.56 59.3882 1073.22 59.0832 1072.55 58.5201L1071.72 57.8163L1058.19 57.9101C1045.49 57.9805 1044.32 57.9336 1041.82 57.4409C1040.32 57.1359 1039.15 56.5963 1039.15 56.2209C1039.15 55.1652 1036.31 54.6959 1028.62 54.4144C1016.6 53.9921 1014.42 53.781 1013.26 52.9598C1012.59 52.5375 1010.58 51.9275 1008.91 51.6225C1004.57 50.8718 1004.9 50.2852 1009.91 49.6752C1015.76 48.9714 1015.43 48.4552 1009.58 48.6429C993.211 49.1591 992.877 49.1356 975.171 46.9772C970.995 46.4376 967.32 46.203 963.478 46.203C955.794 46.203 954.792 46.0387 949.781 44.2088C942.933 41.7453 943.768 41.8626 933.746 41.8626C927.231 41.8626 923.055 41.7219 918.545 41.323C913.033 40.8304 912.198 40.6661 912.198 39.845C912.198 39.0238 911.363 38.8596 903.512 38.0385C898.668 37.5458 891.318 36.8419 887.142 36.4666C877.454 35.6454 866.263 34.1439 860.917 32.9708L856.741 32.0558L860.082 31.4459C862.922 30.9062 873.779 29.7801 889.147 28.4897C894.659 28.0205 896.329 27.5513 898 25.9794C898.668 25.4163 901.507 24.689 905.516 24.0086C911.363 23.0936 912.198 22.7886 912.198 21.8267C912.198 21.0291 910.861 20.4425 907.521 19.6683C900.004 17.9791 898.668 17.3691 897.833 15.2576C896.496 12.3249 896.329 12.1842 890.65 12.1842C887.309 12.1842 885.305 12.3484 883.801 12.7942C881.296 13.4276 877.955 13.4511 864.926 13.0053C861.084 12.8645 859.414 12.9818 853.568 13.8264C847.22 14.7414 846.719 14.8822 847.888 15.6799C850.561 17.5568 850.227 17.6506 840.706 18.2606C830.684 18.9175 830.183 19.3164 839.37 19.3633C847.554 19.3868 854.403 20.1141 855.071 21.0525C855.906 22.1317 851.563 22.3429 833.022 22.1552C812.644 21.944 807.465 22.2256 800.951 23.9382C797.61 24.8298 793.601 25.4398 787.755 25.9559C783.245 26.3782 776.564 27.1524 773.056 27.692C766.708 28.654 766.708 28.654 763.201 28.2317C761.363 27.9736 758.022 27.2463 756.018 26.6128C751.341 25.1582 746.998 24.5952 740.317 24.5717C733.134 24.5482 730.294 24.9705 729.125 26.3313C727.956 27.434 723.947 28.3724 720.105 28.3724C717.098 28.3724 710.083 27.2463 710.083 26.7536C710.083 25.909 713.758 25.1348 719.103 24.8532C727.956 24.384 729.292 24.2432 729.793 23.5863C730.127 23.1875 728.958 22.7183 726.118 22.249C723.112 21.7564 721.775 21.2637 721.775 20.6302C721.775 19.6918 723.446 19.3868 730.127 19.1052C739.982 18.7064 743.156 17.5568 736.642 16.7356C734.136 16.4306 730.795 16.3133 724.281 16.3133C712.087 16.3368 707.577 16.806 704.404 18.331C702.9 19.0114 701.063 19.7152 700.395 19.8795C698.056 20.3956 671.33 21.5921 668.992 21.3106C664.649 20.8179 664.315 19.5275 668.157 18.8472C672.834 18.0026 672.667 17.0876 667.488 16.4072C662.477 15.7268 662.31 15.3749 666.82 13.9438C670.328 12.8411 670.328 12.7942 667.321 12.4892C665.651 12.3249 662.31 12.1842 659.638 12.1842C654.292 12.1842 651.62 11.6211 651.62 10.5653C651.62 9.90842 646.776 8.89959 643.602 8.89959C642.934 8.89959 639.593 9.15766 636.252 9.48612C628.903 10.19 616.208 10.2838 610.028 9.69727C606.52 9.34535 606.353 9.20458 607.188 7.51537C607.522 6.53 608.524 5.28655 609.025 4.72348C610.362 3.6208 607.355 3.33927 603.68 4.20734C601.175 4.74695 589.983 5.21617 584.137 5.00502C577.789 4.79387 573.948 5.0754 569.104 6.08424C563.591 7.2573 561.42 7.28076 561.253 6.13116C561.086 4.84079 559.081 4.11349 555.908 4.01965C553.736 3.94926 553.068 4.11349 553.068 4.77041C553.068 5.66193 549.894 6.24847 543.714 6.45962C540.373 6.57692 537.868 6.38923 530.351 5.3804L521.164 4.16041L510.306 4.25426C496.275 4.37157 494.772 4.58272 498.614 6.06078C500.785 6.9523 501.119 7.32768 499.783 7.70306C497.779 8.21921 488.592 8.66497 480.073 8.66497C476.064 8.66497 473.725 8.85266 470.886 9.36881C468.881 9.76765 464.037 10.2838 460.195 10.5653C454.015 10.9642 453.013 11.1519 452.01 11.973C449.839 13.7561 434.639 15.3984 426.287 14.7649C421.777 14.4364 420.273 13.1695 422.278 11.4099C425.118 8.94651 421.109 8.17229 407.746 8.66497C397.389 9.06382 396.053 8.78228 396.053 6.41269C396.053 4.46541 398.058 3.73811 403.403 3.73811C406.911 3.73811 411.086 2.91697 411.086 2.23659C411.086 1.29814 408.247 0.688148 401.899 0.312768C394.049 -0.132995 389.873 -0.109534 387.701 0.430075Z" fill="#52796F"/>
</g>
<defs>
<filter id="filter0_d_3_17" x="-277" y="0" width="2105" height="254" filterUnits="userSpaceOnUse" color-interpolation-filters="sRGB">
<feFlood flood-opacity="0" result="BackgroundImageFix"/>
<feColorMatrix in="SourceAlpha" type="matrix" values="0 0 0 0 0 0 0 0 0 0 0 0 0 0 0 0 0 0 127 0" result="hardAlpha"/>
<feOffset dx="24" dy="12"/>
<feGaussianBlur stdDeviation="2"/>
<feComposite in2="hardAlpha" operator="out"/>
<feColorMatrix type="matrix" values="0 0 0 0 0 0 0 0 0 0 0 0 0 0 0 0 0 0 1 0"/>
<feBlend mode="normal" in2="BackgroundImageFix" result="effect1_dropShadow_3_17"/>
<feBlend mode="normal" in="SourceGraphic" in2="effect1_dropShadow_3_17" result="shape"/>
</filter>
</defs>
</svg>